<?xml version="1.0" standalone="no"?>
<!DOCTYPE svg PUBLIC "-//W3C//DTD SVG 20010904//EN"
 "http://www.w3.org/TR/2001/REC-SVG-20010904/DTD/svg10.dtd">
<svg version="1.0" xmlns="http://www.w3.org/2000/svg"
 width="500.000000pt" height="500.000000pt" viewBox="0 0 500.000000 500.000000"
 preserveAspectRatio="xMidYMid meet">

<g transform="translate(0.000000,500.000000) scale(0.100000,-0.100000)"
fill="#000000" stroke="none">
<path d="M3700 3440 c0 -5 5 -10 11 -10 5 0 7 5 4 10 -3 6 -8 10 -11 10 -2 0
-4 -4 -4 -10z"/>
<path d="M3588 3414 c-5 -4 -8 -19 -8 -33 0 -18 3 -22 11 -14 6 6 9 21 7 33
-1 12 -6 18 -10 14z"/>
<path d="M3720 3390 c0 -18 4 -29 10 -25 6 3 10 15 10 25 0 10 -4 22 -10 25
-6 4 -10 -7 -10 -25z"/>
<path d="M3663 3332 c-24 -2 -43 -7 -43 -13 0 -13 77 -11 85 2 9 14 7 14 -42
11z"/>
<path d="M3496 3275 c-11 -8 -17 -17 -14 -20 2 -3 13 4 23 15 21 23 18 25 -9
5z"/>
<path d="M3500 3240 c-19 -17 -30 -30 -24 -30 6 0 23 14 39 30 36 38 30 38
-15 0z"/>
<path d="M3445 3190 c-3 -5 -1 -10 4 -10 6 0 11 5 11 10 0 6 -2 10 -4 10 -3 0
-8 -4 -11 -10z"/>
<path d="M3330 3071 c0 -6 4 -13 10 -16 6 -3 7 1 4 9 -7 18 -14 21 -14 7z"/>
<path d="M3456 2895 c16 -22 29 -42 31 -44 2 -2 3 0 3 5 0 5 -14 25 -31 44
l-30 35 27 -40z"/>
<path d="M3479 2912 c5 -10 18 -25 27 -33 11 -9 9 -2 -6 19 -26 35 -36 42 -21
14z"/>
<path d="M3540 2826 c0 -2 8 -10 18 -17 15 -13 16 -12 3 4 -13 16 -21 21 -21
13z"/>
<path d="M3530 2791 c0 -5 5 -13 10 -16 6 -3 10 -2 10 4 0 5 -4 13 -10 16 -5
3 -10 2 -10 -4z"/>
<path d="M3580 2770 c6 -12 8 -29 5 -40 -3 -10 -1 -21 4 -24 18 -12 22 33 5
59 -20 30 -29 33 -14 5z"/>
<path d="M3555 2750 c3 -5 8 -10 11 -10 2 0 4 5 4 10 0 6 -5 10 -11 10 -5 0
-7 -4 -4 -10z"/>
<path d="M3630 2710 c0 -5 7 -10 16 -10 8 0 12 5 9 10 -3 6 -10 10 -16 10 -5
0 -9 -4 -9 -10z"/>
<path d="M3615 2651 c-3 -5 -1 -12 5 -16 13 -8 50 3 50 16 0 12 -47 12 -55 0z"/>
<path d="M3180 2376 c0 -8 5 -18 10 -21 6 -3 10 1 10 9 0 8 -4 18 -10 21 -5 3
-10 -1 -10 -9z"/>
<path d="M3235 2319 c-16 -6 -14 -8 13 -8 33 -1 41 4 20 12 -7 2 -22 1 -33 -4z"/>
<path d="M1965 2206 c-11 -8 -18 -26 -18 -46 0 -38 23 -60 63 -60 40 0 63 22
63 60 0 38 -23 60 -63 60 -14 0 -35 -6 -45 -14z"/>
<path d="M3618 2201 c-37 -37 -6 -101 50 -101 33 0 45 8 61 38 12 23 1 58 -23
74 -20 14 -71 7 -88 -11z"/>
<path d="M1730 2090 c0 -49 -2 -90 -5 -90 -3 0 -17 7 -31 17 -33 21 -119 24
-164 6 -72 -29 -109 -83 -117 -172 -9 -107 61 -198 167 -216 42 -7 114 10 131
32 17 19 27 16 31 -9 3 -20 10 -23 51 -26 l47 -3 0 275 0 276 -55 0 -55 0 0
-90z m-31 -171 c26 -26 31 -38 31 -81 0 -45 -4 -54 -36 -84 -39 -37 -69 -42
-113 -20 -58 30 -76 95 -46 160 30 62 114 76 164 25z"/>
<path d="M450 2105 l0 -45 135 0 c74 0 135 -3 135 -6 0 -3 -34 -47 -76 -98
-42 -50 -83 -100 -92 -111 -10 -11 -39 -46 -65 -77 -42 -49 -48 -62 -45 -95
l3 -38 223 -3 222 -2 0 50 0 50 -145 0 c-80 0 -145 2 -145 5 0 6 50 68 207
258 59 72 73 95 73 123 l0 34 -215 0 -215 0 0 -45z"/>
<path d="M3850 2070 c0 -49 -1 -50 -30 -50 -28 0 -30 -2 -30 -40 0 -37 2 -40
29 -40 l28 0 5 -111 c5 -89 10 -116 25 -138 41 -54 125 -76 183 -46 31 16 37
29 20 40 -5 3 -10 14 -10 24 0 14 -9 17 -47 17 -57 -1 -59 5 -55 129 l3 84 47
3 c47 3 47 3 49 41 l2 37 -49 0 -50 0 0 50 0 50 -60 0 -60 0 0 -50z"/>
<path d="M1047 2029 c-26 -5 -56 -17 -66 -26 -18 -15 -18 -16 1 -49 19 -32 21
-33 46 -20 67 34 146 24 171 -22 20 -38 13 -42 -61 -42 -126 0 -191 -42 -191
-122 0 -97 147 -152 235 -88 34 25 36 25 40 -2 3 -20 10 -23 51 -26 l47 -3 0
144 c0 107 -4 152 -15 173 -40 82 -124 108 -258 83z m167 -235 c11 -29 -20
-70 -65 -83 -38 -11 -45 -11 -68 7 -34 25 -36 42 -11 70 17 18 32 22 79 22 44
0 60 -4 65 -16z"/>
<path d="M2008 2032 l-48 -3 0 -200 0 -200 53 3 52 3 3 194 c1 107 -1 197 -5
200 -5 3 -29 5 -55 3z"/>
<path d="M2283 2027 c-80 -23 -126 -88 -126 -179 1 -113 75 -185 191 -187 24
-1 61 8 82 18 23 11 42 15 46 10 10 -17 -18 -80 -44 -97 -32 -21 -122 -20
-174 2 -48 20 -44 21 -62 -16 -21 -41 -21 -41 12 -55 123 -53 248 -44 321 23
53 47 61 88 61 303 l0 181 -55 0 c-50 0 -55 -2 -55 -22 0 -19 -1 -20 -17 -6
-20 18 -87 38 -118 37 -11 -1 -39 -6 -62 -12z m166 -108 c95 -95 -44 -228
-148 -141 -29 24 -34 34 -34 72 0 38 5 48 34 72 48 40 106 39 148 -3z"/>
<path d="M2766 2025 c-67 -19 -73 -27 -51 -69 18 -33 20 -34 45 -21 86 44 179
15 180 -57 0 -5 -33 -8 -74 -8 -119 0 -186 -42 -186 -117 0 -101 143 -159 231
-94 35 26 37 26 41 -1 3 -20 9 -23 48 -23 l45 0 0 155 c0 174 -6 194 -70 224
-48 23 -150 28 -209 11z m168 -221 c36 -14 4 -74 -50 -92 -44 -14 -94 8 -94
42 0 38 25 56 80 56 27 0 55 -3 64 -6z"/>
<path d="M3300 2032 c-26 -7 -92 -42 -105 -55 -25 -25 -44 -75 -49 -128 -10
-102 57 -185 168 -210 44 -9 62 -9 107 5 97 29 132 78 78 109 -40 22 -43 22
-76 -9 -23 -21 -35 -25 -64 -21 -54 7 -87 33 -99 79 -30 109 79 190 165 124
32 -24 33 -25 68 -8 20 9 36 23 37 30 0 17 -48 61 -80 74 -27 11 -125 18 -150
10z"/>
<path d="M3663 2032 l-43 -3 0 -190 c0 -104 -1 -192 -2 -196 -2 -5 21 -9 50
-11 l52 -3 0 200 c0 110 -3 201 -7 203 -5 2 -27 2 -50 0z"/>
<path d="M4100 2032 c0 -2 9 -22 19 -45 10 -23 31 -71 46 -107 15 -36 35 -83
45 -105 63 -142 63 -141 45 -169 -14 -21 -25 -26 -60 -26 -24 0 -45 5 -47 11
-4 13 -31 -24 -42 -56 -5 -17 0 -23 27 -33 44 -16 100 -15 141 2 34 14 87 80
101 126 4 14 18 48 30 75 13 28 44 102 70 165 27 63 52 119 56 125 5 5 9 17 9
26 0 14 -8 16 -47 12 -27 -3 -51 -8 -54 -12 -3 -3 -20 -42 -38 -86 -17 -44
-38 -92 -46 -107 -8 -14 -15 -33 -15 -42 0 -45 -28 2 -87 144 -7 19 -18 43
-23 52 -6 10 -10 24 -10 32 0 10 -16 15 -60 18 -33 1 -60 2 -60 0z"/>
</g>
</svg>
